<?xml version="1.0" encoding="UTF-8"?>
<!-- Created with Inkscape (http://www.inkscape.org/) -->
<svg width="1166.7" height="300" version="1.1" viewBox="0 0 1166.7 300" xml:space="preserve" xmlns="http://www.w3.org/2000/svg"><defs><clipPath id="clipPath253"><path d="m0 225h875v-225h-875z"/></clipPath></defs><g transform="matrix(1.3333 0 0 -1.3333 0 300)"><g clip-path="url(#clipPath253)"><path d="m704.48 10.114 5.237 28.65 43.128 33.269c40.046 32.654 65.923 56.066 65.923 80.094 0 14.17-9.858 24.336-27.725 24.336s-31.73-5.237-42.203-11.706l-8.934 31.729c16.019 9.858 39.122 17.251 61.918 17.251 40.663 0 62.535-23.72 62.535-54.525 0-40.971-32.653-69.312-68.08-96.42l-19.715-14.171v-0.616h71.777l-7.086-37.891z" fill="none" stroke="#535c68" stroke-width="20"/><path d="m704.48 10.114 5.237 28.65 43.128 33.269c40.046 32.654 65.923 56.066 65.923 80.094 0 14.17-9.858 24.336-27.725 24.336s-31.73-5.237-42.203-11.706l-8.934 31.729c16.019 9.858 39.122 17.251 61.918 17.251 40.663 0 62.535-23.72 62.535-54.525 0-40.971-32.653-69.312-68.08-96.42l-19.715-14.171v-0.616h71.777l-7.086-37.891z" fill="#fff"/><g fill="#535c68"><path d="m16.492 60.901h-15.492v84.892h15.492z"/><path d="m50.499 132.82h-24.184v12.973h64.111v-12.973h-24.435v-71.919h-15.492z"/><path d="m99.997 77.778c5.038-2.896 12.595-5.416 20.53-5.416 9.951 0 15.493 4.66 15.493 11.588 0 6.424-4.283 10.203-15.115 14.108-13.981 5.038-22.923 12.469-22.923 24.686 0 13.855 11.587 24.435 29.976 24.435 9.195 0 15.997-2.015 20.405-4.283l-3.779-12.469c-3.022 1.638-8.942 4.031-16.877 4.031-9.825 0-14.107-5.29-14.107-10.203 0-6.549 4.912-9.572 16.248-13.98 14.736-5.543 21.916-12.973 21.916-25.191 0-13.603-10.328-25.568-32.244-25.568-8.943 0-18.264 2.645-22.924 5.416z"/><path d="m190.94 45.033c3.211-0.378 7.179-0.756 11.902-0.756 14.737 0 27.773 5.29 36.086 14.926 8.691 9.824 13.225 23.05 13.225 38.353 0 20.027-11.147 31.929-33.629 31.929-4.724 0-8.691-0.189-11.525-0.756zm-7.558 103.53c10.769 1.89 22.861 2.834 35.142 2.834 19.837 0 35.707-4.534 46.476-13.792 10.203-8.502 16.626-21.16 16.815-39.864 0-24.75-10.391-45.91-26.261-58.568-14.737-11.715-33.441-17.004-61.025-17.004-15.303 0-28.528 1.322-34.763 2.455z"/><path d="m313.93 118.98c-5.895 0-10.429 4.081-10.429 10.58 0.151 7.406 5.895 12.394 12.545 12.394 6.348 0 10.882-4.232 10.882-10.731 0-7.708-5.895-12.243-12.847-12.243zm-27.508-83.128 14.056 73.909h21.765l-14.056-73.909z"/><path d="m382.09 93.437c-1.663 0.755-4.837 1.359-7.86 1.359-13.149 0-22.52-14.66-22.52-28.717 0-7.406 3.326-12.847 9.976-12.847 7.103 0 14.358 7.86 16.625 20.405zm-50.784-67.864c4.081-2.418 13.149-4.08 19.346-4.08 10.883 0 19.044 4.836 22.067 19.649l1.209 6.196h-0.302c-5.743-7.405-12.394-10.882-21.16-10.882-14.661 0-23.578 11.94-23.729 26.299 0 24.484 17.381 48.667 49.574 48.667 10.429 0 19.649-1.814 27.357-5.139l-11.184-60.91c-2.57-13.602-6.651-25.694-15.568-32.798-8.011-6.347-18.742-8.312-28.566-8.312s-19.044 1.813-24.032 4.685z"/><path d="m438.32 118.98c-5.894 0-10.428 4.081-10.428 10.58 0.151 7.406 5.894 12.394 12.545 12.394 6.347 0 10.881-4.232 10.881-10.731 0-7.708-5.894-12.243-12.846-12.243zm-27.507-83.128 14.056 73.909h21.764l-14.056-73.909z"/><path d="m457.97 52.591c7.557-4.535 18.326-8.125 30.04-8.125 10.58 0 20.216 4.912 20.216 14.926 0 7.179-5.48 11.902-17.193 17.949-13.603 7.367-26.45 17.191-26.45 33.817 0 25.696 22.482 41.377 50.255 41.377 15.492 0 24.561-3.401 30.04-6.424l-8.502-22.672c-4.156 2.268-13.225 5.857-23.805 5.668-12.658 0-19.271-6.423-19.271-13.414 0-7.369 7.746-11.902 18.515-17.948 15.493-8.125 25.317-18.516 25.317-33.63 0-28.34-23.428-43.076-51.767-43.076-17.759 0.378-30.418 4.724-36.464 9.257z"/><path d="m574.72 118.98c-5.895 0-10.429 4.081-10.429 10.58 0.151 7.406 5.894 12.394 12.545 12.394 6.347 0 10.882-4.232 10.882-10.731 0-7.708-5.895-12.243-12.847-12.243zm-27.508-83.128 14.056 73.909h21.764l-14.056-73.909z"/><path d="m642.89 93.437c-1.662 0.755-4.836 1.359-7.86 1.359-13.149 0-22.519-14.66-22.519-28.717 0-7.406 3.324-12.847 9.974-12.847 7.104 0 14.359 7.86 16.626 20.405zm-50.784-67.864c4.081-2.418 13.15-4.08 19.346-4.08 10.883 0 19.044 4.836 22.067 19.649l1.21 6.196h-0.303c-5.743-7.405-12.394-10.882-21.16-10.882-14.661 0-23.578 11.94-23.729 26.299 0 24.484 17.381 48.667 49.574 48.667 10.429 0 19.649-1.814 27.357-5.139l-11.185-60.91c-2.569-13.602-6.65-25.694-15.567-32.798-8.011-6.347-18.741-8.312-28.566-8.312-9.824 0-19.044 1.813-24.032 4.685z"/><path d="m671.61 35.851 9.372 49.877c1.813 9.371 3.022 17.532 3.929 24.032h19.346l-1.511-12.243h0.302c6.952 9.672 16.172 13.905 25.996 13.905 12.092 0 18.894-7.406 18.894-20.102 0-3.325-0.605-8.917-1.21-12.545l-8.162-42.924h-21.764l7.708 40.96c0.454 2.569 0.756 5.592 0.756 8.313 0 5.139-1.814 8.766-7.255 8.766-7.104 0-15.416-8.918-18.44-25.241l-6.196-32.798z"/></g></g></g></svg>
