<?xml version="1.0" encoding="utf-8"?>
<!-- Generator: Adobe Illustrator 12.0.0, SVG Export Plug-In . SVG Version: 6.00 Build 51448)  -->
<!DOCTYPE svg PUBLIC "-//W3C//DTD SVG 1.1//EN" "http://www.w3.org/Graphics/SVG/1.1/DTD/svg11.dtd" [
	<!ENTITY ns_svg "http://www.w3.org/2000/svg">
	<!ENTITY ns_xlink "http://www.w3.org/1999/xlink">
]>
<svg  version="1.1" id="レイヤー_1" xmlns="&ns_svg;" xmlns:xlink="&ns_xlink;" width="444.027" height="58"
	 viewBox="0 0 444.027 58" overflow="visible" enable-background="new 0 0 444.027 58" xml:space="preserve">
<g>
	<g>
		<g>
			<path d="M75.824,2.736v32.352h-4.176V2.736H75.824z"/>
		</g>
		<g>
			<path d="M82.976,18.144c0-2.4-0.048-4.368-0.192-6.288h3.744l0.24,3.84h0.096c1.152-2.208,3.84-4.368,7.68-4.368
				c3.216,0,8.208,1.92,8.208,9.888v13.872h-4.224V21.696c0-3.744-1.392-6.864-5.376-6.864c-2.784,0-4.944,1.968-5.664,4.32
				C87.296,19.68,87.2,20.4,87.2,21.12v13.968h-4.224V18.144z"/>
		</g>
		<g>
			<path d="M114.704,6.288v5.568h6.048v3.216h-6.048V27.6c0,2.881,0.816,4.512,3.168,4.512c1.152,0,1.824-0.096,2.448-0.287
				l0.192,3.168c-0.816,0.336-2.112,0.623-3.744,0.623c-1.968,0-3.552-0.672-4.56-1.823c-1.2-1.248-1.632-3.312-1.632-6.048V15.072
				h-3.6v-3.216h3.6V7.583L114.704,6.288z"/>
		</g>
		<g>
			<path d="M125.503,19.104c0-2.736-0.048-5.088-0.192-7.248h3.696l0.144,4.56h0.192c1.056-3.12,3.6-5.088,6.432-5.088
				c0.48,0,0.816,0.048,1.2,0.144v3.984c-0.432-0.096-0.864-0.144-1.44-0.144c-2.976,0-5.088,2.256-5.664,5.424
				c-0.096,0.576-0.192,1.248-0.192,1.968v12.384h-4.176V19.104z"/>
		</g>
		<g>
			<path d="M162.223,23.28c0,8.592-5.952,12.335-11.568,12.335c-6.288,0-11.136-4.607-11.136-11.952
				c0-7.776,5.088-12.336,11.52-12.336C157.711,11.328,162.223,16.176,162.223,23.28z M143.791,23.52
				c0,5.088,2.928,8.927,7.056,8.927c4.032,0,7.056-3.792,7.056-9.023c0-3.936-1.968-8.928-6.96-8.928S143.791,19.104,143.791,23.52
				z"/>
		</g>
		<g>
			<path d="M187.615,1.008v28.08c0,2.064,0.048,4.416,0.192,6h-3.792l-0.192-4.032h-0.096c-1.296,2.593-4.128,4.56-7.92,4.56
				c-5.616,0-9.936-4.752-9.936-11.808c-0.048-7.728,4.752-12.48,10.416-12.48c3.552,0,5.952,1.68,7.008,3.552h0.096V1.008H187.615z
				 M183.391,21.312c0-0.528-0.048-1.248-0.192-1.776c-0.624-2.688-2.928-4.896-6.096-4.896c-4.368,0-6.96,3.84-6.96,8.976
				c0,4.704,2.304,8.592,6.864,8.592c2.832,0,5.424-1.872,6.192-5.04c0.144-0.576,0.192-1.152,0.192-1.824V21.312z"/>
		</g>
		<g>
			<path d="M214.063,28.752c0,2.4,0.048,4.512,0.192,6.336h-3.744l-0.24-3.792h-0.096c-1.104,1.872-3.552,4.319-7.68,4.319
				c-3.648,0-8.016-2.016-8.016-10.175V11.856h4.224V24.72c0,4.416,1.344,7.392,5.184,7.392c2.832,0,4.8-1.967,5.568-3.839
				c0.24-0.624,0.384-1.392,0.384-2.16V11.856h4.224V28.752z"/>
		</g>
		<g>
			<path d="M237.63,34.224c-1.104,0.576-3.552,1.392-6.672,1.392c-7.008,0-11.568-4.799-11.568-11.903
				c0-7.152,4.896-12.336,12.48-12.336c2.496,0,4.704,0.624,5.856,1.2l-0.96,3.264c-1.008-0.576-2.592-1.104-4.896-1.104
				c-5.328,0-8.208,3.936-8.208,8.784c0,5.376,3.456,8.688,8.064,8.688c2.4,0,3.984-0.624,5.184-1.152L237.63,34.224z"/>
		</g>
		<g>
			<path d="M247.662,6.288v5.568h6.049v3.216h-6.049V27.6c0,2.881,0.816,4.512,3.168,4.512c1.152,0,1.824-0.096,2.448-0.287
				l0.192,3.168c-0.816,0.336-2.112,0.623-3.744,0.623c-1.969,0-3.553-0.672-4.56-1.823c-1.2-1.248-1.632-3.312-1.632-6.048V15.072
				h-3.6v-3.216h3.6V7.583L247.662,6.288z"/>
		</g>
		<g>
			<path d="M263.166,5.328c0.048,1.44-1.008,2.592-2.688,2.592c-1.488,0-2.545-1.152-2.545-2.592c0-1.488,1.104-2.64,2.641-2.64
				C262.158,2.688,263.166,3.84,263.166,5.328z M258.462,35.088V11.856h4.225v23.232H258.462z"/>
		</g>
		<g>
			<path d="M290.718,23.28c0,8.592-5.952,12.335-11.568,12.335c-6.288,0-11.136-4.607-11.136-11.952
				c0-7.776,5.088-12.336,11.52-12.336C286.206,11.328,290.718,16.176,290.718,23.28z M272.285,23.52
				c0,5.088,2.929,8.927,7.057,8.927c4.032,0,7.056-3.792,7.056-9.023c0-3.936-1.968-8.928-6.96-8.928S272.285,19.104,272.285,23.52
				z"/>
		</g>
		<g>
			<path d="M296.045,18.144c0-2.4-0.048-4.368-0.191-6.288h3.743l0.24,3.84h0.096c1.152-2.208,3.841-4.368,7.681-4.368
				c3.216,0,8.208,1.92,8.208,9.888v13.872h-4.225V21.696c0-3.744-1.392-6.864-5.376-6.864c-2.783,0-4.943,1.968-5.664,4.32
				c-0.191,0.528-0.287,1.248-0.287,1.968v13.968h-4.225V18.144z"/>
		</g>
		<g>
			<path d="M353.885,23.28c0,8.592-5.952,12.335-11.568,12.335c-6.288,0-11.136-4.607-11.136-11.952
				c0-7.776,5.088-12.336,11.52-12.336C349.373,11.328,353.885,16.176,353.885,23.28z M335.452,23.52
				c0,5.088,2.929,8.927,7.057,8.927c4.032,0,7.056-3.792,7.056-9.023c0-3.936-1.968-8.928-6.96-8.928S335.452,19.104,335.452,23.52
				z"/>
		</g>
		<g>
			<path d="M359.644,35.088V15.072h-3.264v-3.216h3.264v-1.104c0-3.264,0.721-6.24,2.688-8.112c1.584-1.536,3.696-2.16,5.664-2.16
				c1.488,0,2.784,0.336,3.6,0.672l-0.575,3.264c-0.624-0.288-1.488-0.528-2.688-0.528c-3.6,0-4.512,3.168-4.512,6.72v1.248h5.616
				v3.216h-5.616v20.016H359.644z"/>
		</g>
		<g>
			<path d="M390.411,2.736v32.352h-7.344V2.736H390.411z"/>
		</g>
		<g>
			<path d="M402.987,8.88h-8.688V2.736h24.864V8.88h-8.832v26.208h-7.344V8.88z"/>
		</g>
		<g>
			<path d="M423.291,27.552c1.968,1.008,4.992,2.017,8.112,2.017c3.359,0,5.136-1.393,5.136-3.504c0-2.016-1.536-3.168-5.424-4.56
				c-5.376-1.872-8.881-4.848-8.881-9.552c0-5.52,4.608-9.744,12.24-9.744c3.648,0,6.336,0.768,8.257,1.632l-1.633,5.904
				c-1.296-0.624-3.6-1.536-6.768-1.536s-4.704,1.44-4.704,3.12c0,2.064,1.824,2.976,6,4.56c5.712,2.112,8.4,5.088,8.4,9.648
				c0,5.424-4.177,10.08-13.057,10.08c-3.696,0-7.344-1.008-9.168-2.016L423.291,27.552z"/>
		</g>
	</g>
</g>
<g>
	<g>
		<g>
			<path fill="#616161" d="M73.946,55.26H71.31V42.463h2.637V55.26z"/>
		</g>
		<g>
			<path fill="#616161" d="M86.022,44.604h-3.92V55.26h-2.637V44.604h-3.867v-2.141h10.424V44.604z"/>
		</g>
		<g>
			<path fill="#616161" d="M93.291,46.699l-2.109,1.424c-0.762-1.594-1.693-3.023-2.795-4.289l1.969-1.318
				C91.398,43.664,92.377,45.059,93.291,46.699z M102.273,42.99c-1.008,4.477-2.221,7.564-3.639,9.264
				c-1.617,1.898-3.938,3.381-6.961,4.447c-0.223-0.832-0.715-1.594-1.477-2.285c2.766-0.691,4.828-1.834,6.188-3.428
				c1.535-1.828,2.613-4.688,3.234-8.578L102.273,42.99z"/>
		</g>
		<g>
			<path fill="#616161" d="M111.221,42.92c-0.141,3.938-0.275,6.27-0.404,6.996c-0.504,2.73-2.051,4.957-4.641,6.68
				c-0.188-0.492-0.346-0.844-0.475-1.055c-0.082-0.07-0.416-0.416-1.002-1.037c2.168-1.219,3.457-2.9,3.867-5.045
				c0.188-0.984,0.281-3.164,0.281-6.539H111.221z M122.031,48.879c-1.301,2.215-3.773,4.6-7.418,7.154l-1.494-1.617l0.158-0.211
				V41.654h2.443v10.67c1.793-1.371,3.287-3.035,4.482-4.992C120.789,47.953,121.398,48.469,122.031,48.879z"/>
		</g>
		<g>
			<path fill="#616161" d="M138.449,49.916h-14.15v-2.303h14.15V49.916z"/>
		</g>
		<g>
			<path fill="#616161" d="M147.08,47.771l-1.125,1.934c-1.16-0.727-2.385-1.283-3.674-1.67l0.949-1.951
				C144.648,46.447,145.932,47.01,147.08,47.771z M157.188,47.332c-2.742,3.855-7.02,6.943-12.832,9.264l-1.125-2.461
				c5.227-1.688,9.387-4.611,12.48-8.771C156.145,46.266,156.637,46.922,157.188,47.332z M149.277,43.482l-1.336,1.951
				c-1.137-0.785-2.361-1.482-3.674-2.092l1.072-1.898C146.816,41.959,148.129,42.639,149.277,43.482z"/>
		</g>
		<g>
			<path fill="#616161" d="M172.217,56.807h-2.285v-0.563h-7.154v-2.109h7.154v-2.109h-7.154v-2.109h7.154v-1.934h-7.154v-2.109
				h9.439V56.807z"/>
		</g>
		<g>
			<path fill="#616161" d="M184.75,44.977l-1.67,2.021c-1.301-1.23-2.707-2.338-4.219-3.322l1.494-1.881
				C181.867,42.662,183.332,43.723,184.75,44.977z M193.328,46.559c-2.531,3.598-6.287,6.615-11.268,9.053
				c-0.598,0.199-1.23,0.48-1.898,0.844l-1.23-2.443c5.203-1.734,9.439-4.816,12.709-9.246c0.176,0.258,0.41,0.598,0.703,1.02
				C192.484,45.961,192.813,46.219,193.328,46.559z"/>
		</g>
		<g>
			<path fill="#616161" d="M197.266,51.674h4.975v-1.072h2.338v1.072h5.115v1.811h-5.115v1.072h6.662v1.898h-15.82v-1.898h6.82
				v-1.072h-4.975V51.674z M202.1,40.758h2.479v1.477h6.258v3.797h-1.547v0.914h-2.285c1.406,1.102,2.449,2.021,3.129,2.76
				l-1.617,1.529c-0.281-0.34-0.639-0.715-1.072-1.125c-3.281,0.305-6.773,0.545-10.477,0.721l-0.281-1.898
				c0.879-0.023,1.811-0.047,2.795-0.07l0.809-1.916h-3.023v-0.914h-1.477v-3.797h6.311V40.758z M197.969,45.188h10.688V44.08
				h-10.688V45.188z M205.721,48.58c-0.188-0.176-0.387-0.34-0.598-0.492l1.09-1.143h-3.48l-1.02,1.828
				C202.979,48.715,204.314,48.65,205.721,48.58z"/>
		</g>
		<g>
			<path fill="#616161" d="M228.977,48.949c0,2.391-1.031,4.33-3.094,5.818c-0.832,0.598-2.238,1.137-4.219,1.617
				c-0.164-0.938-0.48-1.688-0.949-2.25c1.945-0.258,3.398-0.85,4.359-1.775c0.973-0.914,1.459-2.074,1.459-3.48
				c0-1.617-0.516-2.836-1.547-3.656c-0.68-0.516-1.547-0.838-2.602-0.967c-0.48,2.707-1.213,5.039-2.197,6.996
				c-1.195,2.438-2.402,3.656-3.621,3.656c-0.855,0-1.582-0.533-2.18-1.6c-0.563-1.008-0.844-2.209-0.844-3.604
				c0-1.863,0.721-3.545,2.162-5.045c1.219-1.242,2.695-1.992,4.43-2.25c0.34-0.047,0.832-0.07,1.477-0.07
				c2.18,0,3.949,0.563,5.309,1.688C228.291,45.152,228.977,46.793,228.977,48.949z M220.135,44.396
				c-2.895,0.785-4.342,2.537-4.342,5.256c0,0.773,0.123,1.424,0.369,1.951c0.199,0.492,0.451,0.75,0.756,0.773
				c0.492-0.023,1.055-0.867,1.688-2.531C219.25,48.17,219.76,46.354,220.135,44.396z"/>
		</g>
		<g>
			<path fill="#616161" d="M233.6,40.424l1.846,0.967c-0.504,1.113-1.084,2.203-1.74,3.27c0.223,0.164,0.434,0.334,0.633,0.51
				c0.469-0.902,0.908-1.834,1.318-2.795l1.74,1.002c-0.891,1.723-1.916,3.422-3.076,5.098c0.504-0.023,1.025-0.059,1.564-0.105
				c-0.141-0.328-0.287-0.656-0.439-0.984l1.617-0.58c0.492,0.914,0.938,1.945,1.336,3.094l-1.775,0.563
				c-0.047-0.164-0.1-0.34-0.158-0.527c-0.27,0.059-0.539,0.111-0.809,0.158v1.336l1.6-0.316c0.176,1.23,0.48,2.379,0.914,3.445
				l-1.74,0.422c-0.328-0.961-0.586-1.91-0.773-2.848v5.098H233.6v-6.873c-0.773,0.094-1.57,0.176-2.391,0.246l-0.264-1.951
				c0.434-0.012,0.891-0.029,1.371-0.053c0.363-0.551,0.721-1.119,1.072-1.705c-0.762-0.668-1.623-1.277-2.584-1.828l0.844-1.617
				c0.188,0.082,0.381,0.176,0.58,0.281C232.756,42.709,233.213,41.607,233.6,40.424z M231.789,51.234l1.811,0.369
				c-0.211,1.477-0.557,3-1.037,4.57c-0.609-0.328-1.195-0.539-1.758-0.633C231.203,54.287,231.531,52.852,231.789,51.234z
				 M238.029,41.197h9.018c-0.141,3.598-0.346,5.701-0.615,6.311c-0.246,0.691-1.213,1.096-2.9,1.213
				c-0.059-0.598-0.293-1.301-0.703-2.109h1.389c0.211,0,0.334-0.064,0.369-0.193c0.117-0.234,0.229-1.324,0.334-3.27h-2.654
				c-0.281,1.781-0.621,2.988-1.02,3.621c-0.551,1.031-1.5,1.816-2.848,2.355c-0.141-0.621-0.422-1.248-0.844-1.881
				c1.125-0.516,1.834-1.137,2.127-1.863c0.223-0.48,0.404-1.225,0.545-2.232h-2.197V41.197z M244.656,56.104h-3.867v0.914h-2.057
				v-7.822h7.963v7.752h-2.039V56.104z M244.656,51.182h-3.867v3.023h3.867V51.182z"/>
		</g>
		<g>
			<path fill="#616161" d="M256.398,40.424l2.25,0.773c-0.129,0.152-0.252,0.299-0.369,0.439c1.008,1.102,1.998,2.045,2.971,2.83
				c1.043,0.902,2.543,1.805,4.5,2.707c-0.527,0.621-0.926,1.324-1.195,2.109c-1.043-0.469-2.221-1.242-3.533-2.32
				c-1.148-0.844-2.479-2.098-3.99-3.762c-1.043,1.242-2.074,2.35-3.094,3.322c-0.152,0.152-0.305,0.293-0.457,0.422h2.285v2.76
				c0,2.086-0.422,3.674-1.266,4.764c-0.691,0.949-1.77,1.846-3.234,2.689c-0.434-0.797-0.949-1.43-1.547-1.898
				c1.277-0.598,2.191-1.248,2.742-1.951c0.656-0.809,0.984-2.01,0.984-3.604v-2.707c-1.031,0.902-2.139,1.664-3.322,2.285
				c-0.223-0.68-0.592-1.336-1.107-1.969C251.758,45.697,254.219,43.4,256.398,40.424z M258.578,47.033h2.32v9.844h-2.32V47.033z"/>
		</g>
	</g>
</g>
<g>
	<g opacity="0.3">
		<path d="M58,53c0,2.75-2.25,5-5,5H7c-2.75,0-5-2.25-5-5V7c0-2.75,2.25-5,5-5h46c2.75,0,5,2.25,5,5V53z"/>
	</g>
	<g>
		<path fill="#00897B" d="M56,51c0,2.75-2.25,5-5,5H5c-2.75,0-5-2.25-5-5V5c0-2.75,2.25-5,5-5h46c2.75,0,5,2.25,5,5V51z"/>
	</g>
</g>
<g>
	<path fill="#FFFFFF" d="M17.715,17.003v14.828H14.35V17.003H17.715z"/>
	<path fill="#FFFFFF" d="M23.479,19.819h-3.982v-2.816h11.396v2.816h-4.048v12.012h-3.366V19.819z"/>
	<path fill="#FFFFFF" d="M32.785,28.377c0.902,0.462,2.288,0.924,3.718,0.924c1.54,0,2.354-0.638,2.354-1.605
		c0-0.925-0.704-1.452-2.486-2.091c-2.464-0.857-4.07-2.222-4.07-4.378c0-2.529,2.112-4.466,5.61-4.466
		c1.672,0,2.904,0.353,3.784,0.748l-0.748,2.706c-0.594-0.286-1.65-0.704-3.102-0.704c-1.452,0-2.156,0.66-2.156,1.43
		c0,0.946,0.836,1.364,2.75,2.091c2.618,0.968,3.85,2.332,3.85,4.422c0,2.485-1.914,4.62-5.984,4.62
		c-1.694,0-3.366-0.463-4.202-0.924L32.785,28.377z"/>
</g>
<g>
	<g>
		<g>
			<path fill="#FFFFFF" d="M4.469,35.853h0.566v-0.285h0.434v0.285h0.566v0.328H5.469v0.156h0.41v0.262
				c0.268-0.289,0.492-0.646,0.672-1.074l0.453,0.109c-0.049,0.096-0.096,0.189-0.141,0.277h0.5l0.047-0.016l0.266,0.254
				l-0.363,0.449h0.566v0.656h0.203v0.379H7.879v0.719H7.453v-0.082H7.145v0.566c0,0.164-0.042,0.268-0.125,0.309
				c-0.07,0.045-0.237,0.066-0.5,0.066c-0.008-0.117-0.049-0.252-0.125-0.406h0.297v-0.535H6.223v-0.359h0.469v-0.277H6.035v-0.379
				h0.656v-0.277H6.238v-0.113c-0.01,0.01-0.021,0.021-0.031,0.031C6.111,36.788,6.001,36.7,5.879,36.63v0.035h-0.41v0.141h0.598
				v0.328H4.391v-0.328h0.645v-0.141H4.563v-0.328h0.473v-0.156H4.469V35.853z M5.078,37.271h0.891v1.02
				c0.016,0.412-0.012,0.656-0.082,0.734c-0.057,0.084-0.221,0.141-0.492,0.172C5.389,39.077,5.341,38.94,5.25,38.79h0.203
				c0.063-0.008,0.09-0.045,0.082-0.109v-0.203H4.953v0.703H4.535v-1.91H5.078z M4.953,37.739h0.582v-0.141H4.953V37.739z
				 M4.953,38.181h0.582V38.04H4.953V38.181z M6.445,36.599h0.367l0.273-0.344H6.672C6.596,36.38,6.521,36.495,6.445,36.599z
				 M7.145,36.978v0.277h0.309v-0.277H7.145z M7.145,37.634v0.277h0.309v-0.277H7.145z"/>
		</g>
		<g>
			<path fill="#FFFFFF" d="M9.863,35.696h2v2.402c0.016,0.5-0.021,0.797-0.109,0.891c-0.07,0.102-0.28,0.17-0.629,0.207
				c-0.005-0.143-0.057-0.305-0.156-0.484h0.363c0.06-0.006,0.086-0.053,0.078-0.145v-2.453H9.004v3.02H8.563v-3.438H9.863z
				 M9.645,36.114c0.156,0.143,0.292,0.311,0.406,0.5l-0.172,0.125h0.496l0.285-0.605l0.422,0.172l-0.258,0.434h0.492v0.395h-0.895
				v0.965h0.328v-0.703h0.441v1.113h-1.5v0.203H9.25v-1.316h0.441v0.703h0.277v-0.965H9.109v-0.395h0.504
				c-0.086-0.154-0.185-0.287-0.297-0.402L9.645,36.114z"/>
		</g>
		<g>
			<path fill="#FFFFFF" d="M12.469,36.478h1.426c0.008-0.141,0.012-0.287,0.012-0.438v-0.473h0.547v0.473
				c0,0.15-0.004,0.297-0.012,0.438h1.547v0.484h-1.457c0.12,0.365,0.277,0.666,0.473,0.906c0.25,0.326,0.599,0.621,1.047,0.887
				c-0.169,0.162-0.273,0.318-0.313,0.473c-0.219-0.111-0.434-0.27-0.645-0.473c-0.219-0.211-0.417-0.463-0.594-0.758
				c-0.091-0.15-0.174-0.314-0.25-0.492c-0.078,0.225-0.177,0.42-0.297,0.586c-0.279,0.408-0.709,0.791-1.293,1.148
				c-0.096-0.172-0.211-0.311-0.344-0.418c0.552-0.299,0.944-0.627,1.176-0.98c0.159-0.227,0.272-0.52,0.34-0.879h-1.363V36.478z"/>
		</g>
		<g>
			<path fill="#FFFFFF" d="M17.078,36.837h1.973l0.031-0.016l0.297,0.262c-0.125,0.115-0.244,0.207-0.355,0.277
				c-0.127,0.094-0.246,0.17-0.355,0.23c-0.06,0.039-0.137,0.082-0.23,0.129v0.02h1.551v0.426h-1.551v0.563
				c0,0.178-0.047,0.297-0.141,0.359c-0.091,0.063-0.303,0.094-0.637,0.094c-0.016-0.17-0.068-0.32-0.156-0.453h0.375
				c0.039,0,0.059-0.031,0.059-0.094v-0.469h-1.484v-0.426h1.484v-0.344l0.199,0.066c0.117-0.063,0.237-0.137,0.359-0.223
				c0.008-0.006,0.014-0.01,0.02-0.016h-1.438V36.837z M19.094,35.524l0.488,0.184l-0.324,0.516h0.68v0.91h-0.469v-0.5h-2.516v0.5
				h-0.465v-0.91h2.27L19.094,35.524z M17.223,35.536c0.146,0.203,0.255,0.381,0.328,0.531l-0.441,0.156
				c-0.083-0.188-0.181-0.359-0.293-0.516L17.223,35.536z M18.207,35.509c0.133,0.211,0.232,0.396,0.297,0.559l-0.41,0.156
				c-0.094-0.193-0.203-0.369-0.328-0.527L18.207,35.509z"/>
		</g>
		<g>
			<path fill="#FFFFFF" d="M21.1,38.79h-0.586v-2.844H21.1V38.79z"/>
		</g>
		<g>
			<path fill="#FFFFFF" d="M23.783,36.423h-0.871v2.367h-0.586v-2.367h-0.859v-0.477h2.316V36.423z"/>
		</g>
		<g>
			<path fill="#FFFFFF" d="M25.398,36.888l-0.469,0.316c-0.169-0.354-0.376-0.672-0.621-0.953l0.438-0.293
				C24.978,36.214,25.195,36.522,25.398,36.888z M27.395,36.063c-0.224,0.994-0.494,1.682-0.809,2.059
				c-0.359,0.422-0.875,0.752-1.547,0.988c-0.049-0.186-0.159-0.354-0.328-0.508c0.615-0.154,1.073-0.408,1.375-0.762
				c0.341-0.406,0.581-1.041,0.719-1.906L27.395,36.063z"/>
		</g>
		<g>
			<path fill="#FFFFFF" d="M29.383,36.048c-0.031,0.875-0.061,1.393-0.09,1.555c-0.112,0.607-0.456,1.102-1.031,1.484
				c-0.042-0.109-0.077-0.188-0.105-0.234c-0.018-0.016-0.092-0.092-0.223-0.23c0.482-0.271,0.768-0.645,0.859-1.121
				c0.042-0.219,0.063-0.703,0.063-1.453H29.383z M31.785,37.372c-0.289,0.492-0.838,1.021-1.648,1.59l-0.332-0.359l0.035-0.047
				v-2.789h0.543v2.371c0.398-0.305,0.73-0.674,0.996-1.109C31.509,37.167,31.645,37.28,31.785,37.372z"/>
		</g>
		<g>
			<path fill="#FFFFFF" d="M35.434,37.603h-3.145v-0.512h3.145V37.603z"/>
		</g>
		<g>
			<path fill="#FFFFFF" d="M37.352,37.126l-0.25,0.43c-0.258-0.162-0.53-0.285-0.816-0.371l0.211-0.434
				C36.811,36.831,37.096,36.956,37.352,37.126z M39.598,37.028c-0.609,0.857-1.56,1.543-2.852,2.059l-0.25-0.547
				c1.162-0.375,2.086-1.025,2.773-1.949C39.366,36.792,39.475,36.937,39.598,37.028z M37.84,36.173l-0.297,0.434
				c-0.252-0.174-0.525-0.33-0.816-0.465l0.238-0.422C37.293,35.835,37.584,35.985,37.84,36.173z"/>
		</g>
		<g>
			<path fill="#FFFFFF" d="M42.938,39.134H42.43v-0.125h-1.59V38.54h1.59v-0.469h-1.59v-0.469h1.59v-0.43h-1.59v-0.469h2.098V39.134
				z"/>
		</g>
		<g>
			<path fill="#FFFFFF" d="M45.723,36.505l-0.371,0.449c-0.289-0.273-0.602-0.52-0.938-0.738l0.332-0.418
				C45.082,35.991,45.408,36.226,45.723,36.505z M47.629,36.856c-0.563,0.799-1.397,1.471-2.504,2.012
				c-0.133,0.045-0.273,0.107-0.422,0.188l-0.273-0.543c1.156-0.385,2.098-1.07,2.824-2.055c0.039,0.057,0.091,0.133,0.156,0.227
				C47.441,36.724,47.514,36.78,47.629,36.856z"/>
		</g>
		<g>
			<path fill="#FFFFFF" d="M48.504,37.993h1.105v-0.238h0.52v0.238h1.137v0.402h-1.137v0.238h1.48v0.422h-3.516v-0.422h1.516v-0.238
				h-1.105V37.993z M49.578,35.567h0.551v0.328h1.391v0.844h-0.344v0.203h-0.508c0.313,0.244,0.544,0.449,0.695,0.613l-0.359,0.34
				c-0.063-0.076-0.142-0.158-0.238-0.25c-0.729,0.068-1.505,0.121-2.328,0.16l-0.063-0.422c0.195-0.006,0.402-0.01,0.621-0.016
				l0.18-0.426h-0.672v-0.203h-0.328v-0.844h1.402V35.567z M48.66,36.552h2.375v-0.246H48.66V36.552z M50.383,37.306
				c-0.042-0.039-0.086-0.076-0.133-0.109l0.242-0.254h-0.773l-0.227,0.406C49.773,37.335,50.07,37.321,50.383,37.306z"/>
		</g>
	</g>
</g>
</svg>
