<?xml version="1.0" encoding="utf-8"?>
<!-- Generator: Adobe Illustrator 12.0.0, SVG Export Plug-In . SVG Version: 6.00 Build 51448)  -->
<!DOCTYPE svg PUBLIC "-//W3C//DTD SVG 1.1//EN" "http://www.w3.org/Graphics/SVG/1.1/DTD/svg11.dtd" [
	<!ENTITY ns_svg "http://www.w3.org/2000/svg">
	<!ENTITY ns_xlink "http://www.w3.org/1999/xlink">
]>
<svg  version="1.1" id="レイヤー_1" xmlns="&ns_svg;" xmlns:xlink="&ns_xlink;" width="1486.982" height="380.808"
	 viewBox="0 0 1486.982 380.808" overflow="visible" enable-background="new 0 0 1486.982 380.808" xml:space="preserve">
<g>
	<path fill="#3498DB" d="M90.19,225.476L0,0h44.813l42.841,111.611l28.466,73.843L187.428,0h45.095l-90.19,225.476H90.19z"/>
</g>
<g>
	<path fill="#2980B9" d="M354.813,380.527c-4.51-20.574-10.146-54.115-19.166-73.563c-7.327-15.219-16.91-18.037-31.284-18.037
		h-77.508v91.6h-40.021V151.668h129.931c55.523,0,67.924,25.93,67.924,64.542c0,15.221,0,51.578-31.284,60.314
		c21.702,8.738,25.647,19.73,43.122,104.283L354.813,380.527z M344.667,217.337c0-18.883-3.946-29.875-35.23-29.875h-82.581v65.67
		h80.607c21.984,0,35.795-2.818,37.204-31.848V217.337z"/>
</g>
<g>
	<path d="M473.292,278.5c-62.511,0-68.245-13.822-68.245-40.732h28.101v6.471c0.765,14.115,12.808,14.705,40.909,15.439h4.014
		c34.409,0,38.615-6.471,38.615-17.352c0-10.146-5.735-14.559-18.543-15.881c-14.528-1.471-43.776-3.088-58.305-4.412
		c-27.527-2.646-34.6-12.94-34.6-30.88c0-27.204,15.866-35.292,67.289-35.292h4.97c50.275,0,61.172,10.146,61.172,38.233h-27.336
		v-3.235c0-9.264-2.677-16.323-35.365-16.323h-2.676c-40.336,0-41.482,6.912-41.482,15.44c0,11.764,6.309,12.939,18.543,14.264
		c11.47,1.176,35.938,2.205,52.569,3.971c28.674,2.793,40.908,10.588,40.908,34.262c0,25.881-14.337,36.027-66.333,36.027H473.292z"
		/>
	<path d="M560.041,299.087V186.153h25.233v8.382c6.117-7.059,10.323-10.588,38.232-10.588c6.5,0,12.999,0.294,17.205,0.441
		c35.556,2.206,36.32,28.233,36.32,47.496c0,30.146-5.161,44.41-54.099,44.41c-22.557,0-31.351-2.354-37.468-9.264v32.057H560.041z
		 M585.657,233.503c1.338,17.498,3.059,25.586,33.453,25.586c1.529,0,2.867-0.146,4.206-0.146
		c24.851-0.59,28.674-5.295,28.674-28.381c0-19.999-1.529-29.41-30.013-29.41h-3.059c-29.821,0-33.262,3.971-33.262,28.527V233.503z
		"/>
	<path d="M745.889,278.058c-47.791-0.734-54.29-10.146-55.246-46.174c0-38.674,8.603-48.084,57.73-48.084
		c2.868,0,5.544,0.147,8.412,0.147c5.734,0.147,11.469,0.294,16.057,0.735c33.836,3.382,34.983,18.528,34.983,37.938
		c0,4.705-0.191,9.412-0.191,13.383h-91.758c0,20.291,3.632,23.82,19.881,24.998c3.632,0.293,7.455,0.441,11.47,0.441
		c2.294,0,4.588-0.148,7.073-0.148c25.233,0,27.527-4.559,28.865-15.881h25.233c0,2.059-0.383,3.971-0.765,5.883
		c-3.823,22.352-19.499,26.762-54.099,26.762H745.889z M783.165,221.003c0-1.471,0.191-3.235,0.191-5
		c0-12.939-7.456-15.587-29.057-15.587c-2.485,0-4.971,0.147-7.265,0.147c-22.366,0-30.968,1.911-30.968,20.439H783.165z"/>
	<path d="M876.489,278.058c-47.79-0.734-54.29-10.146-55.245-46.174c0-38.674,8.602-48.084,57.73-48.084
		c2.867,0,5.544,0.147,8.411,0.147c5.735,0.147,11.47,0.294,16.058,0.735c33.836,3.382,34.982,18.528,34.982,37.938
		c0,4.705-0.191,9.412-0.191,13.383h-91.758c0,20.291,3.633,23.82,19.881,24.998c3.633,0.293,7.456,0.441,11.471,0.441
		c2.293,0,4.588-0.148,7.072-0.148c25.233,0,27.527-4.559,28.865-15.881H939c0,2.059-0.383,3.971-0.766,5.883
		c-3.822,22.352-19.498,26.762-54.099,26.762H876.489z M913.766,221.003c0-1.471,0.191-3.235,0.191-5
		c0-12.939-7.455-15.587-29.057-15.587c-2.484,0-4.97,0.147-7.264,0.147c-22.366,0-30.969,1.911-30.969,20.439H913.766z"/>
	<path d="M1043.643,275.853V268.5c-5.162,6.766-11.471,10-38.232,10c-6.5,0-13-0.295-17.205-0.441
		c-35.747-2.205-36.512-28.086-36.512-48.82c0-30.88,4.588-45.438,53.143-45.438c26.572,0,33.453,3.382,38.615,9.264v-34.998h25.424
		V276L1043.643,275.853z M1006.557,201.152c-25.807,1.176-29.439,4.559-29.439,28.234c0,28.967,5.735,31.32,30.777,31.908
		c33.453,0,35.365-5.293,35.365-33.379c-0.765-23.676-6.309-26.764-33.645-26.764H1006.557z"/>
	<path d="M1204.217,277.47c-3.059-10.734-6.882-28.232-12.999-38.379c-4.97-7.941-11.47-9.412-21.219-9.412h-52.569v47.791h-27.146
		V158.066h88.126c37.658,0,46.07,13.528,46.07,33.674c0,7.94,0,26.909-21.22,31.468c14.72,4.559,17.396,10.295,29.248,54.408
		L1204.217,277.47z M1197.335,192.329c0-9.852-2.677-15.587-23.896-15.587h-56.01v34.262h54.672c14.91,0,24.277-1.471,25.233-16.616
		V192.329z"/>
	<path d="M1330.039,275.853v-9.117c-2.867,6.322-10.705,10.588-33.645,10.588h-3.059c-21.793,0-48.746-2.059-48.746-29.998v-61.173
		h25.998v57.202c0,15.146,10.322,16.027,26.38,16.617h2.867c21.983,0,29.821-6.471,29.821-18.234V186.3h25.807V276L1330.039,275.853
		z"/>
	<path d="M1460.984,275.853v-57.35c0-11.47-5.926-16.028-25.807-16.469c-14.528,0-33.07,0.881-33.07,18.234v55.584h-25.998v-89.847
		h25.615v9.412c4.396-8.971,18.734-10.882,35.557-10.882h3.632c26.188,0.294,46.069,5.441,46.069,30.292V276L1460.984,275.853z"/>
</g>
<rect x="407.405" y="324.63" width="55.144" height="55.143"/>
<rect x="474.803" y="324.63" width="55.144" height="55.143"/>
<rect x="542.2" y="324.63" width="55.143" height="55.143"/>
<rect x="609.597" y="324.63" width="55.144" height="55.143"/>
<g>
	<path d="M680.12,343.478V325.81h3.132v14.867h10.918v2.822L680.12,343.478z"/>
	<path d="M701.691,343.81c-5.514-0.111-6.264-1.523-6.374-6.926c0-5.803,0.992-7.213,6.661-7.213c0.331,0,0.64,0.021,0.971,0.021
		c0.661,0.021,1.323,0.045,1.853,0.109c3.904,0.508,4.036,2.779,4.036,5.691c0,0.705-0.021,1.412-0.021,2.008h-10.588
		c0,3.043,0.419,3.572,2.294,3.75c0.419,0.043,0.86,0.064,1.323,0.064c0.265,0,0.53-0.021,0.816-0.021
		c2.912,0,3.177-0.684,3.331-2.383h2.911c0,0.311-0.044,0.596-0.088,0.883c-0.441,3.354-2.25,4.016-6.242,4.016H701.691z
		 M705.993,335.251c0-0.221,0.021-0.486,0.021-0.75c0-1.941-0.86-2.338-3.353-2.338c-0.286,0-0.573,0.021-0.838,0.021
		c-2.581,0-3.573,0.287-3.573,3.066H705.993z"/>
	<path d="M719.928,343.589c-0.419,0.043-1.234,0.066-1.94,0.066h-0.464c-2.911-0.045-4.676-0.928-4.676-3.773v-7.211h-2.867v-2.648
		h2.867v-3.352h3.021v3.352h4.037v2.648h-4.059v6.484c0,1.322,0.287,1.742,1.875,1.785h0.242c0.684,0,1.39-0.064,1.963-0.109
		V343.589z"/>
	<path d="M721.658,331.171c1.499,0,1.764-1.016,1.764-1.92h-1.853v-3.418h3.86v3.439c0,2.361-1.279,3.771-3.771,3.771V331.171z"/>
	<path d="M737.468,333.994v-0.154c-0.088-1.455-0.706-1.742-3.242-1.742c-2.625,0-3.286,0.396-3.286,1.654
		c0,0.883,0.419,1.258,1.323,1.367c1.213,0.154,3.507,0.287,4.918,0.463c2.096,0.266,3.618,0.971,3.618,4.146
		c0,3.375-2.008,4.125-6.331,4.125c-5.117,0-6.528-0.729-6.551-4.676h2.912c0,1.963,0.771,2.25,3.728,2.25
		c3.374,0,3.396-0.861,3.396-1.742c0-0.773-0.088-1.457-1.5-1.654c-1.434-0.178-3.882-0.332-5.184-0.529
		c-2.624-0.441-3.132-1.896-3.132-3.574v-0.352c0.11-2.449,0.927-3.949,6.198-3.949c5.823,0,5.911,1.854,5.999,4.367H737.468z"/>
	<path d="M750.35,343.457V325.81h14.095v2.867h-10.94v4.236h10.058v2.867h-10.058v4.875h11.293v2.822L750.35,343.457z"/>
	<path d="M776.249,343.478v-8.602c0-1.721-0.684-2.404-2.978-2.471c-1.677,0-3.816,0.133-3.816,2.734v8.338h-2.999v-13.477h2.955
		v1.412c0.508-1.346,2.162-1.633,4.103-1.633h0.42c3.021,0.045,5.315,0.816,5.315,4.545v9.174L776.249,343.478z"/>
	<path d="M781.759,347.007l-0.993-0.021v-2.846h1.302c1.081-0.066,1.742-0.396,1.742-1.566v-12.285h3.022v12.771
		c0,3.219-2.515,3.947-4.853,3.947H781.759z M783.523,328.722v-2.912h3.595v2.912H783.523z"/>
	<path d="M795.905,329.648c4.831,0,6.529,0.398,6.64,7.059c0,6.066-1.104,7.191-6.684,7.191c-5.779,0-6.882-0.816-7.014-6.992
		C788.848,330.201,790.348,329.648,795.905,329.648z M799.699,336.794c0-4.213-0.529-4.631-3.573-4.631
		c-0.265,0-0.529,0.021-0.794,0.021c-3.065,0.133-3.617,0.199-3.617,4.699c0,4.08,0.507,4.521,3.728,4.521
		c0.242,0,0.507-0.023,0.771-0.023C799.368,341.382,799.699,340.787,799.699,336.794z"/>
	<path d="M809.373,342.066l-5.734-12.043h3.353l3.794,8.955l3.463-8.955h3.33l-5.867,13.566c-1.059,2.602-2.536,3.33-5.072,3.33
		c-0.75,0-1.368-0.045-2.206-0.133v-2.602c1.059,0.131,2.051,0.154,2.184,0.154c1.037,0,1.875-0.309,2.316-1.279L809.373,342.066z"
		/>
	<path d="M836.411,343.478v-8.602c0-1.324-0.354-2.383-2.912-2.471c-2.095,0-3.882,0.266-3.882,2.734v8.338h-3V325.81h2.956v5.582
		c0.573-1.479,2.536-1.611,4.213-1.611h0.331c3.948,0.066,5.293,1.588,5.293,4.545v9.174L836.411,343.478z"/>
	<path d="M841.652,328.589v-2.756h3.596v2.756H841.652z M841.961,343.478v-13.211h3.022v13.211H841.961z"/>
	<path d="M861.521,331.898c-0.685,0.023-1.214,0.178-1.479,0.553c0.066,0.109,0.221,0.639,0.221,1.41
		c0,0.354-0.044,0.684-0.088,0.971c-0.419,2.141-1.037,3.021-6.198,3.021c-1.742,0-2.228-0.021-2.801-0.176
		c-0.354,0.154-1.081,0.551-1.081,0.926c0,0.045,0,0.111,0.021,0.154c0.089,0.287,0.64,0.354,1.037,0.398
		c1.059,0.109,4.213,0.043,6.463,0.352c2.36,0.332,3.595,1.059,3.595,3.684c0,2.824-1.301,3.992-7.322,3.992
		c-6.088,0-7.036-1.234-7.036-3.947c0-0.859,0.065-2.205,1.411-2.955c-0.198-0.09-0.617-0.354-0.617-1.434
		c0-0.111,0-0.244,0.021-0.354c0.066-0.771,0.993-1.5,1.346-1.699c-0.728-0.197-1.323-1.08-1.434-1.809
		c-0.044-0.396-0.088-0.992-0.088-1.322c0-3.309,1.345-3.971,6.352-3.971c2.758,0,4.125,0.221,4.721,0.684
		c0.375-0.354,1.015-0.639,1.632-0.816c0.133-0.066,0.86-0.133,1.214-0.133h0.11V331.898z M858.367,343.125
		c0-0.529-0.089-1.189-1.279-1.344c-1.985-0.309-4.213-0.266-6-0.309h-0.044c-0.485,0-1.566,0.352-1.566,1.609
		c0,1.301,0.485,1.697,4.015,1.697c0.331,0,0.684-0.021,1.015-0.021c2.228,0,3.86-0.088,3.86-1.566V343.125z M853.669,332.009
		c-3.066,0-3.552,0.418-3.552,1.941c0,1.498,0.993,1.564,3.463,1.564c3.177,0,3.904-0.088,3.904-1.809
		c0-0.242-0.021-0.463-0.066-0.662c-0.265-0.904-1.103-1.035-3.308-1.035H853.669z"/>
	<path d="M872.956,343.478v-8.602c0-1.324-0.354-2.383-2.912-2.471c-2.095,0-3.882,0.266-3.882,2.734v8.338h-3V325.81h2.956v5.582
		c0.573-1.479,2.536-1.611,4.213-1.611h0.331c3.948,0.066,5.293,1.588,5.293,4.545v9.174L872.956,343.478z"/>
	<path d="M877.738,338.052v-2.734h8.007v2.734H877.738z"/>
	<path d="M896.619,333.994v-0.154c-0.088-1.455-0.706-1.742-3.242-1.742c-2.625,0-3.287,0.396-3.287,1.654
		c0,0.883,0.419,1.258,1.323,1.367c1.214,0.154,3.508,0.287,4.919,0.463c2.096,0.266,3.617,0.971,3.617,4.146
		c0,3.375-2.007,4.125-6.33,4.125c-5.117,0-6.528-0.729-6.551-4.676h2.911c0,1.963,0.772,2.25,3.728,2.25
		c3.375,0,3.397-0.861,3.397-1.742c0-0.773-0.089-1.457-1.5-1.654c-1.434-0.178-3.882-0.332-5.184-0.529
		c-2.625-0.441-3.132-1.896-3.132-3.574v-0.352c0.11-2.449,0.926-3.949,6.198-3.949c5.822,0,5.911,1.854,5.999,4.367H896.619z"/>
	<path d="M901.768,346.964v-16.941h2.911v1.258c0.706-1.059,1.191-1.588,4.411-1.588c0.75,0,1.5,0.045,1.985,0.066
		c4.103,0.33,4.191,4.234,4.191,7.125c0,4.521-0.596,6.66-6.242,6.66c-2.604,0-3.618-0.354-4.323-1.389v4.809H901.768z
		 M904.723,337.126c0.154,2.625,0.354,3.838,3.86,3.838c0.177,0,0.331-0.023,0.485-0.023c2.867-0.088,3.309-0.793,3.309-4.256
		c0-3-0.177-4.412-3.463-4.412h-0.354c-3.44,0-3.838,0.596-3.838,4.279V337.126z"/>
	<path d="M923.211,343.81c-5.514-0.111-6.264-1.523-6.374-6.926c0-5.803,0.992-7.213,6.661-7.213c0.331,0,0.64,0.021,0.971,0.021
		c0.661,0.021,1.323,0.045,1.853,0.109c3.904,0.508,4.036,2.779,4.036,5.691c0,0.705-0.021,1.412-0.021,2.008h-10.588
		c0,3.043,0.419,3.572,2.294,3.75c0.419,0.043,0.86,0.064,1.323,0.064c0.265,0,0.529-0.021,0.816-0.021
		c2.911,0,3.176-0.684,3.33-2.383h2.912c0,0.311-0.044,0.596-0.088,0.883c-0.441,3.354-2.25,4.016-6.242,4.016H923.211z
		 M927.512,335.251c0-0.221,0.022-0.486,0.022-0.75c0-1.941-0.86-2.338-3.353-2.338c-0.287,0-0.573,0.021-0.838,0.021
		c-2.581,0-3.573,0.287-3.573,3.066H927.512z"/>
	<path d="M938.281,343.81c-5.514-0.111-6.264-1.523-6.374-6.926c0-5.803,0.992-7.213,6.661-7.213c0.331,0,0.64,0.021,0.971,0.021
		c0.661,0.021,1.323,0.045,1.853,0.109c3.904,0.508,4.036,2.779,4.036,5.691c0,0.705-0.021,1.412-0.021,2.008h-10.588
		c0,3.043,0.419,3.572,2.294,3.75c0.419,0.043,0.86,0.064,1.323,0.064c0.265,0,0.529-0.021,0.816-0.021
		c2.911,0,3.176-0.684,3.33-2.383h2.912c0,0.311-0.044,0.596-0.088,0.883c-0.441,3.354-2.25,4.016-6.242,4.016H938.281z
		 M942.582,335.251c0-0.221,0.022-0.486,0.022-0.75c0-1.941-0.86-2.338-3.353-2.338c-0.287,0-0.573,0.021-0.838,0.021
		c-2.581,0-3.573,0.287-3.573,3.066H942.582z"/>
	<path d="M957.568,343.478v-1.102c-0.596,1.014-1.323,1.498-4.411,1.498c-0.75,0-1.5-0.043-1.985-0.064
		c-4.125-0.332-4.213-4.213-4.213-7.324c0-4.631,0.529-6.814,6.132-6.814c3.066,0,3.86,0.506,4.456,1.389v-5.25h2.934V343.5
		L957.568,343.478z M953.289,332.273c-2.978,0.178-3.396,0.684-3.396,4.236c0,4.344,0.662,4.697,3.551,4.785
		c3.86,0,4.081-0.793,4.081-5.006c-0.088-3.553-0.728-4.016-3.882-4.016H953.289z"/>
	<path d="M970.489,343.478v-13.455h2.934l0.021,1.369c0.64-1.215,1.875-1.59,4.39-1.59c0.552,0,1.434,0,2.096,0.045v2.824
		c-0.485-0.045-1.125-0.066-1.742-0.066c-3.772,0-4.765,0.926-4.765,2.689v8.184H970.489z"/>
	<path d="M991.253,343.478v-1.367c-0.33,0.949-1.234,1.588-3.882,1.588h-0.353c-2.515,0-5.625-0.309-5.625-4.5v-9.176h3v8.58
		c0,2.273,1.191,2.404,3.044,2.494h0.331c2.536,0,3.44-0.971,3.44-2.736v-8.314h2.978V343.5L991.253,343.478z"/>
	<path d="M1006.362,343.478v-8.602c0-1.721-0.684-2.404-2.978-2.471c-1.677,0-3.816,0.133-3.816,2.734v8.338h-2.999v-13.477h2.955
		v1.412c0.508-1.346,2.162-1.633,4.103-1.633h0.42c3.021,0.045,5.315,0.816,5.315,4.545v9.174L1006.362,343.478z"/>
	<path d="M1021.432,343.478v-8.602c0-1.721-0.684-2.404-2.978-2.471c-1.677,0-3.816,0.133-3.816,2.734v8.338h-2.999v-13.477h2.955
		v1.412c0.508-1.346,2.162-1.633,4.103-1.633h0.419c3.022,0.045,5.316,0.816,5.316,4.545v9.174L1021.432,343.478z"/>
	<path d="M1026.603,328.589v-2.756h3.596v2.756H1026.603z M1026.911,343.478v-13.211h3.022v13.211H1026.911z"/>
	<path d="M1042.232,343.478v-8.602c0-1.721-0.684-2.404-2.978-2.471c-1.677,0-3.816,0.133-3.816,2.734v8.338h-2.999v-13.477h2.955
		v1.412c0.508-1.346,2.162-1.633,4.103-1.633h0.419c3.022,0.045,5.316,0.816,5.316,4.545v9.174L1042.232,343.478z"/>
	<path d="M1061.541,331.898c-0.685,0.023-1.214,0.178-1.479,0.553c0.066,0.109,0.221,0.639,0.221,1.41
		c0,0.354-0.044,0.684-0.088,0.971c-0.419,2.141-1.037,3.021-6.198,3.021c-1.742,0-2.228-0.021-2.801-0.176
		c-0.354,0.154-1.081,0.551-1.081,0.926c0,0.045,0,0.111,0.021,0.154c0.089,0.287,0.64,0.354,1.037,0.398
		c1.059,0.109,4.213,0.043,6.463,0.352c2.36,0.332,3.595,1.059,3.595,3.684c0,2.824-1.301,3.992-7.322,3.992
		c-6.088,0-7.036-1.234-7.036-3.947c0-0.859,0.065-2.205,1.411-2.955c-0.198-0.09-0.617-0.354-0.617-1.434
		c0-0.111,0-0.244,0.021-0.354c0.066-0.771,0.993-1.5,1.346-1.699c-0.728-0.197-1.323-1.08-1.434-1.809
		c-0.044-0.396-0.088-0.992-0.088-1.322c0-3.309,1.345-3.971,6.352-3.971c2.758,0,4.125,0.221,4.721,0.684
		c0.375-0.354,1.015-0.639,1.632-0.816c0.133-0.066,0.86-0.133,1.214-0.133h0.11V331.898z M1058.387,343.125
		c0-0.529-0.089-1.189-1.279-1.344c-1.985-0.309-4.213-0.266-6-0.309h-0.044c-0.485,0-1.566,0.352-1.566,1.609
		c0,1.301,0.485,1.697,4.015,1.697c0.331,0,0.684-0.021,1.015-0.021c2.228,0,3.86-0.088,3.86-1.566V343.125z M1053.688,332.009
		c-3.066,0-3.552,0.418-3.552,1.941c0,1.498,0.993,1.564,3.463,1.564c3.177,0,3.904-0.088,3.904-1.809
		c0-0.242-0.021-0.463-0.066-0.662c-0.265-0.904-1.103-1.035-3.308-1.035H1053.688z"/>
	<path d="M1080.783,343.478c-0.11-0.287-0.132-0.551-0.198-0.859c-0.75,0.859-2.471,1.125-4.698,1.125
		c-4.234,0-5.47-0.838-5.624-3.904v-0.133c0-3.838,2.47-4.301,4.014-4.477c1.544-0.178,5.956-0.266,6.154-0.287
		c0.022-0.088,0.022-0.553,0.022-1.037c0-0.992-0.243-1.721-3.044-1.721h-0.508c-2.117,0-2.911,0.221-3.109,1.104
		c-0.045,0.109-0.045,0.242-0.045,0.33v0.133h-2.955c0.132-3.109,2.073-4.037,6.176-4.037h0.441
		c3.684,0.088,5.801,0.596,5.801,4.324v6.484c0,0.971,0.088,1.83,0.375,2.977L1080.783,343.478z M1080.475,337.369
		c-1.213,0.021-4.059,0.088-5.47,0.242c-0.75,0.088-1.963,0.309-1.963,1.875c0,1.324,0.661,1.787,3.484,1.787
		c3.772,0,3.948-1.258,3.948-2.141V337.369z"/>
	<path d="M1095.337,343.478v-8.602c0-1.721-0.684-2.404-2.978-2.471c-1.677,0-3.816,0.133-3.816,2.734v8.338h-2.999v-13.477h2.955
		v1.412c0.508-1.346,2.162-1.633,4.103-1.633h0.42c3.021,0.045,5.315,0.816,5.315,4.545v9.174L1095.337,343.478z"/>
	<path d="M1110.781,343.478v-1.102c-0.596,1.014-1.323,1.498-4.411,1.498c-0.75,0-1.5-0.043-1.985-0.064
		c-4.125-0.332-4.213-4.213-4.213-7.324c0-4.631,0.529-6.814,6.132-6.814c3.066,0,3.86,0.506,4.456,1.389v-5.25h2.934V343.5
		L1110.781,343.478z M1106.502,332.273c-2.978,0.178-3.396,0.684-3.396,4.236c0,4.344,0.662,4.697,3.551,4.785
		c3.86,0,4.081-0.793,4.081-5.006c-0.088-3.553-0.728-4.016-3.882-4.016H1106.502z"/>
	<path d="M1133.835,343.478v-1.102c-0.596,1.014-1.323,1.498-4.411,1.498c-0.75,0-1.5-0.043-1.985-0.064
		c-4.125-0.332-4.213-4.213-4.213-7.324c0-4.631,0.529-6.814,6.132-6.814c3.066,0,3.86,0.506,4.456,1.389v-5.25h2.934V343.5
		L1133.835,343.478z M1129.556,332.273c-2.978,0.178-3.396,0.684-3.396,4.236c0,4.344,0.662,4.697,3.551,4.785
		c3.86,0,4.081-0.793,4.081-5.006c-0.088-3.553-0.728-4.016-3.882-4.016H1129.556z"/>
	<path d="M1145.062,343.81c-5.515-0.111-6.264-1.523-6.374-6.926c0-5.803,0.992-7.213,6.661-7.213c0.331,0,0.64,0.021,0.971,0.021
		c0.661,0.021,1.323,0.045,1.853,0.109c3.904,0.508,4.036,2.779,4.036,5.691c0,0.705-0.021,1.412-0.021,2.008h-10.588
		c0,3.043,0.419,3.572,2.294,3.75c0.419,0.043,0.86,0.064,1.323,0.064c0.265,0,0.529-0.021,0.816-0.021
		c2.911,0,3.176-0.684,3.33-2.383h2.912c0,0.311-0.044,0.596-0.088,0.883c-0.441,3.354-2.25,4.016-6.242,4.016H1145.062z
		 M1149.362,335.251c0-0.221,0.022-0.486,0.022-0.75c0-1.941-0.86-2.338-3.353-2.338c-0.287,0-0.573,0.021-0.838,0.021
		c-2.581,0-3.573,0.287-3.573,3.066H1149.362z"/>
	<path d="M1163.166,333.994v-0.154c-0.088-1.455-0.706-1.742-3.242-1.742c-2.625,0-3.287,0.396-3.287,1.654
		c0,0.883,0.419,1.258,1.323,1.367c1.214,0.154,3.508,0.287,4.919,0.463c2.096,0.266,3.617,0.971,3.617,4.146
		c0,3.375-2.007,4.125-6.33,4.125c-5.117,0-6.528-0.729-6.551-4.676h2.911c0,1.963,0.772,2.25,3.728,2.25
		c3.375,0,3.397-0.861,3.397-1.742c0-0.773-0.089-1.457-1.5-1.654c-1.434-0.178-3.882-0.332-5.184-0.529
		c-2.625-0.441-3.132-1.896-3.132-3.574v-0.352c0.11-2.449,0.926-3.949,6.198-3.949c5.822,0,5.911,1.854,5.999,4.367H1163.166z"/>
	<path d="M1177.433,343.589c-0.42,0.043-1.235,0.066-1.941,0.066h-0.463c-2.912-0.045-4.677-0.928-4.677-3.773v-7.211h-2.867v-2.648
		h2.867v-3.352h3.022v3.352h4.036v2.648h-4.059v6.484c0,1.322,0.287,1.742,1.875,1.785h0.242c0.685,0,1.39-0.064,1.964-0.109
		V343.589z"/>
	<path d="M1179.162,343.478v-13.455h2.934l0.021,1.369c0.64-1.215,1.875-1.59,4.39-1.59c0.552,0,1.434,0,2.096,0.045v2.824
		c-0.485-0.045-1.125-0.066-1.742-0.066c-3.772,0-4.765,0.926-4.765,2.689v8.184H1179.162z"/>
	<path d="M1196.771,329.648c4.831,0,6.529,0.398,6.64,7.059c0,6.066-1.104,7.191-6.684,7.191c-5.779,0-6.882-0.816-7.014-6.992
		C1189.714,330.201,1191.213,329.648,1196.771,329.648z M1200.565,336.794c0-4.213-0.529-4.631-3.573-4.631
		c-0.265,0-0.529,0.021-0.794,0.021c-3.065,0.133-3.617,0.199-3.617,4.699c0,4.08,0.507,4.521,3.728,4.521
		c0.242,0,0.507-0.023,0.771-0.023C1200.234,341.382,1200.565,340.787,1200.565,336.794z"/>
	<path d="M1210.239,342.066l-5.734-12.043h3.353l3.794,8.955l3.463-8.955h3.33l-5.867,13.566c-1.059,2.602-2.536,3.33-5.072,3.33
		c-0.75,0-1.368-0.045-2.206-0.133v-2.602c1.059,0.131,2.051,0.154,2.184,0.154c1.037,0,1.875-0.309,2.316-1.279L1210.239,342.066z"
		/>
	<path d="M1219.751,328.589v-2.756h3.596v2.756H1219.751z M1220.06,343.478v-13.211h3.022v13.211H1220.06z"/>
	<path d="M1235.381,343.478v-8.602c0-1.721-0.684-2.404-2.978-2.471c-1.677,0-3.816,0.133-3.816,2.734v8.338h-2.999v-13.477h2.955
		v1.412c0.508-1.346,2.162-1.633,4.103-1.633h0.419c3.022,0.045,5.316,0.816,5.316,4.545v9.174L1235.381,343.478z"/>
	<path d="M1254.69,331.898c-0.685,0.023-1.214,0.178-1.479,0.553c0.066,0.109,0.221,0.639,0.221,1.41
		c0,0.354-0.044,0.684-0.088,0.971c-0.419,2.141-1.037,3.021-6.198,3.021c-1.742,0-2.228-0.021-2.801-0.176
		c-0.354,0.154-1.081,0.551-1.081,0.926c0,0.045,0,0.111,0.021,0.154c0.089,0.287,0.64,0.354,1.037,0.398
		c1.059,0.109,4.213,0.043,6.463,0.352c2.36,0.332,3.595,1.059,3.595,3.684c0,2.824-1.301,3.992-7.322,3.992
		c-6.088,0-7.036-1.234-7.036-3.947c0-0.859,0.065-2.205,1.411-2.955c-0.198-0.09-0.617-0.354-0.617-1.434
		c0-0.111,0-0.244,0.021-0.354c0.066-0.771,0.993-1.5,1.346-1.699c-0.728-0.197-1.323-1.08-1.434-1.809
		c-0.044-0.396-0.088-0.992-0.088-1.322c0-3.309,1.345-3.971,6.352-3.971c2.758,0,4.125,0.221,4.721,0.684
		c0.375-0.354,1.015-0.639,1.632-0.816c0.133-0.066,0.86-0.133,1.214-0.133h0.11V331.898z M1251.536,343.125
		c0-0.529-0.089-1.189-1.279-1.344c-1.985-0.309-4.213-0.266-6-0.309h-0.044c-0.485,0-1.566,0.352-1.566,1.609
		c0,1.301,0.485,1.697,4.015,1.697c0.331,0,0.684-0.021,1.015-0.021c2.228,0,3.86-0.088,3.86-1.566V343.125z M1246.838,332.009
		c-3.066,0-3.552,0.418-3.552,1.941c0,1.498,0.993,1.564,3.463,1.564c3.177,0,3.904-0.088,3.904-1.809
		c0-0.242-0.021-0.463-0.066-0.662c-0.265-0.904-1.103-1.035-3.308-1.035H1246.838z"/>
	<path d="M689.785,376.564v-1.367c-0.331,0.949-1.235,1.588-3.882,1.588h-0.353c-2.515,0-5.625-0.309-5.625-4.5v-9.176h3v8.58
		c0,2.273,1.191,2.404,3.044,2.494h0.331c2.536,0,3.44-0.971,3.44-2.736v-8.314h2.978v13.453L689.785,376.564z"/>
	<path d="M704.895,376.564v-8.602c0-1.721-0.684-2.404-2.978-2.471c-1.677,0-3.816,0.133-3.816,2.734v8.338h-3v-13.477h2.956v1.412
		c0.508-1.346,2.162-1.633,4.103-1.633h0.419c3.022,0.045,5.316,0.816,5.316,4.545v9.174L704.895,376.564z"/>
	<path d="M719.259,376.564l-6-7.301v7.301h-3v-17.645h3V369l5.426-5.891h3.838l-5.911,6.045l6.463,7.432L719.259,376.564z"/>
	<path d="M734.227,376.564v-8.602c0-1.721-0.684-2.404-2.978-2.471c-1.677,0-3.816,0.133-3.816,2.734v8.338h-3v-13.477h2.956v1.412
		c0.508-1.346,2.162-1.633,4.103-1.633h0.419c3.022,0.045,5.316,0.816,5.316,4.545v9.174L734.227,376.564z"/>
	<path d="M746.138,362.734c4.831,0,6.529,0.398,6.64,7.059c0,6.066-1.104,7.191-6.684,7.191c-5.779,0-6.882-0.816-7.015-6.992
		C739.079,363.287,740.579,362.734,746.138,362.734z M749.932,369.88c0-4.213-0.529-4.631-3.573-4.631
		c-0.265,0-0.529,0.021-0.794,0.021c-3.066,0.133-3.617,0.199-3.617,4.699c0,4.08,0.507,4.521,3.728,4.521
		c0.242,0,0.507-0.023,0.771-0.023C749.601,374.468,749.932,373.873,749.932,369.88z"/>
	<path d="M765.984,376.564c0,0-1.677-7.5-1.743-7.719c-0.088-0.441-0.595-3.023-0.64-3.398c-0.021-0.088-0.044-0.131-0.065-0.131
		c-0.022,0-0.066,0.043-0.066,0.131c-0.022,0.375-0.573,3.133-0.64,3.42c-0.044,0.242-1.698,7.697-1.698,7.697h-3.927l-3.353-13.455
		h3l1.677,7.434c0.176,0.816,0.551,2.934,0.661,3.574c0,0.066,0.022,0.088,0.044,0.088c0.022,0,0.044-0.021,0.066-0.111
		c0.133-0.572,0.552-2.822,0.706-3.506l1.61-7.479h3.838c0,0,1.676,7.037,1.72,7.279c0.155,0.662,0.662,3.662,0.662,3.662
		c0.022,0.133,0.044,0.221,0.088,0.221c0.022,0,0.045-0.088,0.066-0.221c0,0,0.485-2.934,0.64-3.641
		c0.066-0.309,1.677-7.301,1.677-7.301h2.978l-3.375,13.455H765.984z"/>
	<path d="M784.543,376.564v-8.602c0-1.721-0.684-2.404-2.978-2.471c-1.677,0-3.816,0.133-3.816,2.734v8.338h-2.999v-13.477h2.955
		v1.412c0.508-1.346,2.162-1.633,4.103-1.633h0.419c3.022,0.045,5.316,0.816,5.316,4.545v9.174L784.543,376.564z"/>
	<path d="M804.063,362.734c4.831,0,6.529,0.398,6.64,7.059c0,6.066-1.104,7.191-6.684,7.191c-5.779,0-6.882-0.816-7.014-6.992
		C797.006,363.287,798.506,362.734,804.063,362.734z M807.857,369.88c0-4.213-0.529-4.631-3.573-4.631
		c-0.265,0-0.529,0.021-0.794,0.021c-3.065,0.133-3.617,0.199-3.617,4.699c0,4.08,0.507,4.521,3.728,4.521
		c0.242,0,0.507-0.023,0.771-0.023C807.526,374.468,807.857,373.873,807.857,369.88z"/>
	<path d="M812.679,376.564v-17.668h2.934v5.25c0.596-0.838,1.213-1.389,4.478-1.389c5.426,0,6.11,2.006,6.11,6.814
		c0,1.125-0.045,2.295-0.155,3.111c-0.529,4.256-3.617,4.277-6.153,4.277c-2.559,0-3.529-0.33-4.301-1.543l0.021,1.146H812.679z
		 M820.002,374.38c2.69-0.088,3.265-0.639,3.265-4.609c0-3.42-0.287-4.301-3.331-4.389h-0.507c-3.198,0-3.706,0.617-3.794,3.992
		c0,3.969,0.088,5.006,3.903,5.006H820.002z"/>
	<path d="M828.445,380.093l-0.993-0.021v-2.846h1.302c1.081-0.066,1.742-0.396,1.742-1.566v-12.285h3.022v12.771
		c0,3.219-2.515,3.947-4.853,3.947H828.445z M830.21,361.808v-2.912h3.595v2.912H830.21z"/>
	<path d="M841.908,376.896c-5.514-0.111-6.264-1.523-6.374-6.926c0-5.803,0.992-7.213,6.661-7.213c0.331,0,0.64,0.021,0.971,0.021
		c0.661,0.021,1.323,0.045,1.853,0.109c3.904,0.508,4.036,2.779,4.036,5.691c0,0.705-0.021,1.412-0.021,2.008h-10.588
		c0,3.043,0.419,3.572,2.294,3.75c0.419,0.043,0.86,0.064,1.323,0.064c0.265,0,0.529-0.021,0.816-0.021
		c2.911,0,3.176-0.684,3.33-2.383h2.912c0,0.311-0.044,0.596-0.088,0.883c-0.441,3.354-2.25,4.016-6.242,4.016H841.908z
		 M846.209,368.337c0-0.221,0.022-0.486,0.022-0.75c0-1.941-0.86-2.338-3.353-2.338c-0.287,0-0.573,0.021-0.838,0.021
		c-2.581,0-3.573,0.287-3.573,3.066H846.209z"/>
	<path d="M861.081,368.226c-0.021-0.264-0.021-0.572-0.044-0.793c-0.198-1.676-1.146-2.051-3.44-2.051h-0.441
		c-3.397,0-3.617,1.059-3.617,4.588c0,3.748,0.33,4.367,3.903,4.367c3.044,0,3.64-0.465,3.64-3.332h2.956
		c-0.154,4.521-0.993,5.912-6.529,5.912c-0.904,0-1.676-0.021-2.315-0.066c-3.684-0.287-4.588-1.92-4.588-6.859
		c0-6.42,1.367-7.213,6.926-7.213c4.434,0,6.088,0.816,6.396,4.125c0.021,0.352,0.021,0.926,0.044,1.322H861.081z"/>
	<path d="M875.062,376.675c-0.42,0.043-1.235,0.066-1.941,0.066h-0.463c-2.912-0.045-4.677-0.928-4.677-3.773v-7.211h-2.867v-2.648
		h2.867v-3.352h3.022v3.352h4.036v2.648h-4.059v6.484c0,1.322,0.287,1.742,1.875,1.785h0.242c0.685,0,1.39-0.064,1.964-0.109
		V376.675z"/>
	<path d="M885.74,367.08v-0.154c-0.088-1.455-0.706-1.742-3.242-1.742c-2.625,0-3.287,0.396-3.287,1.654
		c0,0.883,0.419,1.258,1.323,1.367c1.214,0.154,3.508,0.287,4.919,0.463c2.096,0.266,3.617,0.971,3.617,4.146
		c0,3.375-2.007,4.125-6.33,4.125c-5.117,0-6.528-0.729-6.551-4.676h2.911c0,1.963,0.772,2.25,3.728,2.25
		c3.375,0,3.397-0.861,3.397-1.742c0-0.773-0.089-1.457-1.5-1.654c-1.434-0.178-3.882-0.332-5.184-0.529
		c-2.625-0.441-3.132-1.896-3.132-3.574v-0.352c0.11-2.449,0.926-3.949,6.198-3.949c5.822,0,5.911,1.854,5.999,4.367H885.74z"/>
	<path d="M898.392,361.675v-2.756h3.596v2.756H898.392z M898.7,376.564v-13.211h3.022v13.211H898.7z"/>
	<path d="M914.022,376.564v-8.602c0-1.721-0.684-2.404-2.978-2.471c-1.677,0-3.816,0.133-3.816,2.734v8.338h-2.999v-13.477h2.955
		v1.412c0.508-1.346,2.162-1.633,4.103-1.633h0.42c3.021,0.045,5.315,0.816,5.315,4.545v9.174L914.022,376.564z"/>
	<path d="M936.026,376.675c-0.42,0.043-1.235,0.066-1.941,0.066h-0.463c-2.912-0.045-4.677-0.928-4.677-3.773v-7.211h-2.867v-2.648
		h2.867v-3.352h3.022v3.352h4.036v2.648h-4.059v6.484c0,1.322,0.287,1.742,1.875,1.785h0.242c0.685,0,1.39-0.064,1.964-0.109
		V376.675z"/>
	<path d="M947.531,376.564v-8.602c0-1.324-0.354-2.383-2.912-2.471c-2.095,0-3.882,0.266-3.882,2.734v8.338h-3v-17.668h2.956v5.582
		c0.573-1.479,2.536-1.611,4.213-1.611h0.331c3.948,0.066,5.293,1.588,5.293,4.545v9.174L947.531,376.564z"/>
	<path d="M958.828,376.896c-5.514-0.111-6.264-1.523-6.374-6.926c0-5.803,0.992-7.213,6.661-7.213c0.331,0,0.64,0.021,0.971,0.021
		c0.661,0.021,1.323,0.045,1.853,0.109c3.904,0.508,4.036,2.779,4.036,5.691c0,0.705-0.021,1.412-0.021,2.008h-10.588
		c0,3.043,0.419,3.572,2.294,3.75c0.419,0.043,0.86,0.064,1.323,0.064c0.265,0,0.529-0.021,0.816-0.021
		c2.911,0,3.176-0.684,3.33-2.383h2.912c0,0.311-0.044,0.596-0.088,0.883c-0.441,3.354-2.25,4.016-6.242,4.016H958.828z
		 M963.129,368.337c0-0.221,0.022-0.486,0.022-0.75c0-1.941-0.86-2.338-3.353-2.338c-0.287,0-0.573,0.021-0.838,0.021
		c-2.581,0-3.573,0.287-3.573,3.066H963.129z"/>
	<path d="M979.965,376.564l-5.36-13.455h3.242l2.471,6.33c0.177,0.465,1.5,4.545,1.5,4.545s1.411-4.146,1.544-4.5l2.382-6.375h3.287
		l-5.294,13.455H979.965z"/>
	<path d="M990.317,361.675v-2.756h3.596v2.756H990.317z M990.626,376.564v-13.211h3.022v13.211H990.626z"/>
	<path d="M996.189,376.564v-13.455h2.934l0.021,1.369c0.64-1.215,1.875-1.59,4.39-1.59c0.552,0,1.434,0,2.096,0.045v2.824
		c-0.485-0.045-1.125-0.066-1.742-0.066c-3.772,0-4.765,0.926-4.765,2.689v8.184H996.189z"/>
	<path d="M1016.283,376.675c-0.42,0.043-1.235,0.066-1.941,0.066h-0.463c-2.912-0.045-4.677-0.928-4.677-3.773v-7.211h-2.867v-2.648
		h2.867v-3.352h3.022v3.352h4.036v2.648h-4.059v6.484c0,1.322,0.287,1.742,1.875,1.785h0.242c0.685,0,1.39-0.064,1.964-0.109
		V376.675z"/>
	<path d="M1027.766,376.564v-1.367c-0.33,0.949-1.234,1.588-3.882,1.588h-0.353c-2.515,0-5.625-0.309-5.625-4.5v-9.176h3v8.58
		c0,2.273,1.191,2.404,3.044,2.494h0.331c2.536,0,3.44-0.971,3.44-2.736v-8.314h2.978v13.453L1027.766,376.564z"/>
	<path d="M1043.091,376.564c-0.11-0.287-0.132-0.551-0.198-0.859c-0.75,0.859-2.471,1.125-4.698,1.125
		c-4.234,0-5.47-0.838-5.624-3.904v-0.133c0-3.838,2.47-4.301,4.014-4.477c1.544-0.178,5.956-0.266,6.154-0.287
		c0.022-0.088,0.022-0.553,0.022-1.037c0-0.992-0.243-1.721-3.044-1.721h-0.508c-2.117,0-2.911,0.221-3.109,1.104
		c-0.045,0.109-0.045,0.242-0.045,0.33v0.133h-2.955c0.132-3.109,2.073-4.037,6.176-4.037h0.441
		c3.684,0.088,5.801,0.596,5.801,4.324v6.484c0,0.971,0.088,1.83,0.375,2.977L1043.091,376.564z M1042.782,370.455
		c-1.213,0.021-4.059,0.088-5.47,0.242c-0.75,0.088-1.963,0.309-1.963,1.875c0,1.324,0.661,1.787,3.484,1.787
		c3.772,0,3.948-1.258,3.948-2.141V370.455z"/>
	<path d="M1048.028,376.564v-17.668h3.021v17.689L1048.028,376.564z"/>
	<path d="M1072.326,376.564c0,0-1.677-7.5-1.743-7.719c-0.088-0.441-0.595-3.023-0.64-3.398c-0.021-0.088-0.044-0.131-0.065-0.131
		c-0.022,0-0.066,0.043-0.066,0.131c-0.022,0.375-0.573,3.133-0.64,3.42c-0.044,0.242-1.698,7.697-1.698,7.697h-3.927l-3.353-13.455
		h3l1.677,7.434c0.176,0.816,0.551,2.934,0.661,3.574c0,0.066,0.022,0.088,0.044,0.088c0.022,0,0.044-0.021,0.066-0.111
		c0.133-0.572,0.552-2.822,0.706-3.506l1.61-7.479h3.838c0,0,1.676,7.037,1.72,7.279c0.155,0.662,0.662,3.662,0.662,3.662
		c0.022,0.133,0.044,0.221,0.088,0.221c0.022,0,0.045-0.088,0.066-0.221c0,0,0.485-2.934,0.64-3.641
		c0.066-0.309,1.677-7.301,1.677-7.301h2.978l-3.375,13.455H1072.326z"/>
	<path d="M1087.726,362.734c4.831,0,6.529,0.398,6.64,7.059c0,6.066-1.104,7.191-6.684,7.191c-5.779,0-6.882-0.816-7.014-6.992
		C1080.668,363.287,1082.168,362.734,1087.726,362.734z M1091.52,369.88c0-4.213-0.529-4.631-3.573-4.631
		c-0.265,0-0.529,0.021-0.794,0.021c-3.065,0.133-3.617,0.199-3.617,4.699c0,4.08,0.507,4.521,3.728,4.521
		c0.242,0,0.507-0.023,0.771-0.023C1091.188,374.468,1091.52,373.873,1091.52,369.88z"/>
	<path d="M1096.395,376.564v-13.455h2.934l0.021,1.369c0.64-1.215,1.875-1.59,4.39-1.59c0.552,0,1.434,0,2.096,0.045v2.824
		c-0.485-0.045-1.125-0.066-1.742-0.066c-3.772,0-4.765,0.926-4.765,2.689v8.184H1096.395z"/>
	<path d="M1107.547,376.564v-17.668h3.021v17.689L1107.547,376.564z"/>
	<path d="M1123.189,376.564v-1.102c-0.596,1.014-1.323,1.498-4.411,1.498c-0.75,0-1.5-0.043-1.985-0.064
		c-4.125-0.332-4.213-4.213-4.213-7.324c0-4.631,0.529-6.814,6.132-6.814c3.066,0,3.86,0.506,4.456,1.389v-5.25h2.934v17.689
		L1123.189,376.564z M1118.91,365.359c-2.978,0.178-3.396,0.684-3.396,4.236c0,4.344,0.662,4.697,3.551,4.785
		c3.86,0,4.081-0.793,4.081-5.006c-0.088-3.553-0.728-4.016-3.882-4.016H1118.91z"/>
	<path d="M1128.13,376.585v-3.705h3.815v3.729L1128.13,376.585z"/>
</g>
<g>
	<path fill="#FFFFFF" d="M455.856,366.414l-2.442-10.385c-1.237-4.615-5.42-7.824-10.198-7.824h-16.478
		c-4.778,0-8.961,3.209-10.198,7.824l-2.442,10.385c-0.625,2.98,1.096,5.951,3.99,6.895l0.143,0.045
		c2.681,0.873,5.604-0.252,7.011-2.695l2.124-3.141c0.533-0.926,1.521-1.498,2.59-1.498h10.044c1.068,0,2.056,0.572,2.589,1.498
		l2.125,3.141c1.406,2.443,4.331,3.568,7.011,2.695l0.143-0.045C454.761,372.365,456.481,369.394,455.856,366.414z M429.647,359.455
		h-3.422v3.422h-2.979v-3.422h-3.421v-2.977h3.421v-3.42h2.979v3.42h3.422V359.455z M444.72,352.345
		c1.036,0,1.875,0.838,1.875,1.873s-0.839,1.875-1.875,1.875c-1.035,0-1.874-0.84-1.874-1.875S443.685,352.345,444.72,352.345z
		 M440.972,359.843c-1.034,0-1.874-0.842-1.874-1.877s0.84-1.873,1.874-1.873c1.036,0,1.874,0.838,1.874,1.873
		S442.008,359.843,440.972,359.843z M444.72,363.589c-1.035,0-1.874-0.84-1.874-1.873c0-1.037,0.839-1.875,1.874-1.875
		c1.036,0,1.875,0.838,1.875,1.875C446.595,362.75,445.756,363.589,444.72,363.589z M448.468,359.843
		c-1.034,0-1.873-0.842-1.873-1.877s0.839-1.873,1.873-1.873c1.036,0,1.874,0.838,1.874,1.873S449.504,359.843,448.468,359.843z"/>
	<path fill="#FFFFFF" d="M427.184,335.689c2.221-1.529,4.9-2.424,7.794-2.426c2.894,0.002,5.572,0.896,7.794,2.426
		c0.57,0.393,1.351,0.248,1.744-0.32c0.393-0.572,0.249-1.352-0.321-1.744c-2.62-1.805-5.802-2.867-9.217-2.867
		c-3.416,0-6.597,1.063-9.217,2.867c-0.57,0.393-0.713,1.174-0.32,1.744S426.614,336.082,427.184,335.689z"/>
	<path fill="#FFFFFF" d="M441.048,340.101c0.336-0.488,0.213-1.158-0.275-1.494h-0.001c-1.646-1.137-3.647-1.805-5.794-1.805
		c-2.147,0-4.149,0.668-5.795,1.805c-0.489,0.336-0.612,1.006-0.276,1.492c0.337,0.49,1.006,0.613,1.495,0.277
		c1.306-0.9,2.875-1.424,4.576-1.424c1.7,0,3.27,0.523,4.576,1.424C440.042,340.712,440.711,340.589,441.048,340.101z"/>
	<path fill="#FFFFFF" d="M432.603,343.585c-0.407,0.281-0.51,0.838-0.23,1.246c0.28,0.406,0.838,0.51,1.245,0.23
		c0.389-0.268,0.852-0.422,1.36-0.422c0.508,0,0.972,0.154,1.359,0.42c0.406,0.281,0.964,0.178,1.244-0.229s0.179-0.965-0.229-1.244
		c-0.672-0.465-1.495-0.738-2.374-0.738C434.098,342.847,433.275,343.123,432.603,343.585z"/>
</g>
<g>
	<path fill="#FFFFFF" d="M488.501,350.603l3.859-3.859C490.229,346.744,488.501,348.472,488.501,350.603z"/>
	<path fill="#FFFFFF" d="M518.941,330.757v17.838h-1.811c-0.941-3.832-4.398-6.672-8.519-6.672h-16.66
		c-4.12,0-7.575,2.84-8.519,6.672h-1.881v4.49h1.958c1.04,3.684,4.425,6.385,8.441,6.385c3.394,0,5.508-1.338,7.412-3.879
		c0.35-0.465,0.698-0.619,0.918-0.619c0.221,0,0.569,0.154,0.918,0.619c1.904,2.541,4.019,3.879,7.412,3.879
		c4.018,0,7.401-2.701,8.442-6.385h1.887v4.723c0,1.098-0.221,2.135-0.621,3.082c-0.601,1.418-1.607,2.633-2.873,3.486
		c-0.632,0.428-1.328,0.766-2.07,0.996c-0.743,0.232-1.533,0.355-2.357,0.355h-5.027c-0.05-0.154-0.105-0.307-0.169-0.455
		c-0.458-1.084-1.22-2-2.181-2.65c-0.961-0.648-2.129-1.029-3.371-1.029c-0.828,0-1.624,0.168-2.346,0.475
		c-1.084,0.457-2.001,1.221-2.65,2.18c-0.65,0.961-1.031,2.129-1.031,3.371c0,0.828,0.17,1.625,0.475,2.348
		c0.459,1.084,1.222,2,2.182,2.65c0.959,0.648,2.128,1.029,3.371,1.029c0.827,0,1.624-0.168,2.346-0.475
		c1.084-0.459,2.001-1.221,2.65-2.182c0.213-0.314,0.396-0.652,0.548-1.006h5.204c1.676,0,3.282-0.342,4.74-0.959
		c2.188-0.926,4.042-2.467,5.355-4.408c0.655-0.973,1.177-2.045,1.532-3.189c0.357-1.145,0.548-2.363,0.548-3.619v-27.051H518.941z
		 M508.612,356.162c-2.131,0-3.332-0.645-4.766-2.555c-0.926-1.236-2.226-1.943-3.564-1.943c-1.338,0-2.639,0.707-3.564,1.943
		c-1.433,1.91-2.636,2.555-4.767,2.555c-3.013,0-5.464-2.451-5.464-5.465s2.451-5.465,5.464-5.465h16.661
		c3.014,0,5.466,2.451,5.466,5.465S511.626,356.162,508.612,356.162z M502.776,368.675c-0.205,0.488-0.553,0.904-0.986,1.199
		c-0.436,0.293-0.95,0.463-1.519,0.463c-0.38,0-0.732-0.076-1.058-0.213c-0.485-0.205-0.903-0.553-1.197-0.986
		c-0.293-0.436-0.463-0.949-0.463-1.52c0-0.379,0.076-0.732,0.213-1.057c0.205-0.486,0.552-0.904,0.986-1.197
		c0.436-0.293,0.95-0.463,1.519-0.463c0.38,0,0.732,0.076,1.058,0.213c0.485,0.205,0.903,0.553,1.196,0.986
		c0.293,0.436,0.464,0.949,0.464,1.518C502.989,368,502.913,368.353,502.776,368.675z"/>
</g>
<g>
	<rect x="565.571" y="345.648" fill="#FFFFFF" width="1.718" height="1.715"/>
	<rect x="569.295" y="345.648" fill="#FFFFFF" width="1.717" height="1.715"/>
	<rect x="573.018" y="345.648" fill="#FFFFFF" width="1.719" height="1.715"/>
	<rect x="565.571" y="349.281" fill="#FFFFFF" width="1.718" height="1.717"/>
	<rect x="569.295" y="349.281" fill="#FFFFFF" width="1.717" height="1.717"/>
	<rect x="573.018" y="349.281" fill="#FFFFFF" width="1.719" height="1.717"/>
	<rect x="565.571" y="352.916" fill="#FFFFFF" width="1.718" height="1.717"/>
	<rect x="569.295" y="352.916" fill="#FFFFFF" width="1.717" height="1.717"/>
	<rect x="573.018" y="352.916" fill="#FFFFFF" width="1.719" height="1.717"/>
	<rect x="565.571" y="356.548" fill="#FFFFFF" width="1.718" height="1.717"/>
	<rect x="569.295" y="356.548" fill="#FFFFFF" width="1.717" height="1.717"/>
	<rect x="573.018" y="356.548" fill="#FFFFFF" width="1.719" height="1.717"/>
	<rect x="565.571" y="360.181" fill="#FFFFFF" width="1.718" height="1.717"/>
	<rect x="553.642" y="350.998" fill="#FFFFFF" width="1.717" height="1.719"/>
	<rect x="553.642" y="354.632" fill="#FFFFFF" width="1.717" height="1.717"/>
	<rect x="553.642" y="358.267" fill="#FFFFFF" width="1.717" height="1.717"/>
	<rect x="553.642" y="361.9" fill="#FFFFFF" width="1.717" height="1.717"/>
	<rect x="553.642" y="365.533" fill="#FFFFFF" width="1.717" height="1.717"/>
	<rect x="557.938" y="350.998" fill="#FFFFFF" width="1.716" height="1.719"/>
	<rect x="557.938" y="354.632" fill="#FFFFFF" width="1.716" height="1.717"/>
	<rect x="557.938" y="358.267" fill="#FFFFFF" width="1.716" height="1.717"/>
	<rect x="557.938" y="361.9" fill="#FFFFFF" width="1.716" height="1.717"/>
	<rect x="557.938" y="365.533" fill="#FFFFFF" width="1.716" height="1.717"/>
	<rect x="569.295" y="360.181" fill="#FFFFFF" width="1.717" height="1.717"/>
	<rect x="573.018" y="360.181" fill="#FFFFFF" width="1.719" height="1.717"/>
	<rect x="565.571" y="363.816" fill="#FFFFFF" width="1.718" height="1.717"/>
	<rect x="569.295" y="363.816" fill="#FFFFFF" width="1.717" height="1.717"/>
	<rect x="573.018" y="363.816" fill="#FFFFFF" width="1.719" height="1.717"/>
	<rect x="580.08" y="356.162" fill="#FFFFFF" width="5.727" height="1"/>
	<rect x="580.08" y="359.089" fill="#FFFFFF" width="5.727" height="0.998"/>
	<rect x="580.08" y="362.013" fill="#FFFFFF" width="5.727" height="0.998"/>
	<rect x="580.08" y="364.937" fill="#FFFFFF" width="5.727" height="1"/>
	<path fill="#FFFFFF" d="M589.815,371.355v-19.471h-11.072v-10.309h-3.776v-3.344h-1.146v-2.893h-3.008v-4.582h-1.335v4.582h-2.992
		v2.893h-1.146v3.344h-3.776v5.385h-11.835v24.395h-2.292v2.291h2.864h11.835h1.146h13.744h1.146h11.073h2.862v-2.291H589.815z
		 M562.136,371.927h-4.426v-3.053h-1.838v3.053h-4.427v-23.248h10.69V371.927L562.136,371.927z M568.203,337.056h3.899v1.586h-3.899
		V337.056z M567.06,339.951h6.189v2.197h-6.189V339.951z M577.025,352.457v19.471h-5.44v-4.197h-2.863v4.197h-5.44v-24.393v-4.242
		h2.632h8.481h2.631V352.457z M588.098,371.927h-4.045v-3.053h-1.838v3.053h-4.044v-18.324h9.927V371.927L588.098,371.927z"/>
</g>
<g>
	<path fill="#FFFFFF" d="M634.293,339.962c2.542,0,4.603-2.061,4.603-4.604c0-2.541-2.061-4.602-4.603-4.602
		c-2.541,0-4.602,2.061-4.602,4.602C629.691,337.902,631.752,339.962,634.293,339.962z"/>
	<path fill="#FFFFFF" d="M655.651,369.726l-6.766-4.326l-5.452-8.564l-1.794-10.127l5.839-0.541l5.023,3.248
		c0.675,0.436,1.566,0.313,2.097-0.291l0.028-0.033c0.588-0.668,0.526-1.688-0.14-2.279l-4.497-3.996
		c-0.485-0.432-1.104-0.68-1.753-0.703l-11.22-0.627c-0.346-0.018-0.668,0.008-0.668,0.008c-0.144,0.012-0.29,0.029-0.436,0.055
		c-0.817,0.141-1.551,0.479-2.161,0.955l-8.25,4.98l-5.196-2.906c-0.807-0.451-1.825-0.184-2.305,0.607l-0.065,0.105
		c-0.238,0.393-0.311,0.863-0.199,1.307c0.109,0.443,0.393,0.826,0.786,1.061l6.192,3.695c0.771,0.461,1.71,0.543,2.549,0.227
		l5.226-1.977l1.739,7.016l-7.339-0.029c-0.974-0.004-1.898,0.43-2.52,1.18c-0.62,0.75-0.873,1.738-0.688,2.695l1.944,10.012
		c0.215,1.109,1.267,1.852,2.384,1.686l0.083-0.014c1.105-0.166,1.891-1.166,1.788-2.279l-0.659-7.174l10.213,0.322l4.783,4.82
		c0.666,0.672,1.426,1.242,2.257,1.695l7.104,3.881c0.996,0.516,2.22,0.146,2.767-0.832l0.04-0.068
		C656.932,371.537,656.606,370.304,655.651,369.726z"/>
</g>
</svg>
